<mxfile host="app.diagrams.net" modified="2021-06-22T12:50:40.599Z" agent="5.0 (Windows NT 10.0; Win64; x64) AppleWebKit/537.36 (KHTML, like Gecko) Chrome/91.0.4472.114 Safari/537.36" etag="ItwynjFwZmM9riA93f9C" version="14.7.6" type="github">
  <diagram id="DCJ40wF-HfNcIlj2_QVm" name="Page-1">
    <mxGraphModel dx="1447" dy="750" grid="1" gridSize="10" guides="1" tooltips="1" connect="1" arrows="1" fold="1" page="1" pageScale="1" pageWidth="827" pageHeight="1169" math="0" shadow="0">
      <root>
        <mxCell id="0" />
        <mxCell id="1" parent="0" />
        <mxCell id="NEpuYSpWq8pQS_j3NAKV-1" value="Admin" style="shape=umlActor;verticalLabelPosition=bottom;verticalAlign=top;html=1;outlineConnect=0;" vertex="1" parent="1">
          <mxGeometry x="110" y="170" width="30" height="60" as="geometry" />
        </mxCell>
        <mxCell id="NEpuYSpWq8pQS_j3NAKV-3" value="Guru" style="shape=umlActor;verticalLabelPosition=bottom;verticalAlign=top;html=1;outlineConnect=0;" vertex="1" parent="1">
          <mxGeometry x="430" y="250" width="30" height="60" as="geometry" />
        </mxCell>
        <mxCell id="NEpuYSpWq8pQS_j3NAKV-4" value="Siswa" style="shape=umlActor;verticalLabelPosition=bottom;verticalAlign=top;html=1;outlineConnect=0;" vertex="1" parent="1">
          <mxGeometry x="430" y="90" width="30" height="60" as="geometry" />
        </mxCell>
        <mxCell id="NEpuYSpWq8pQS_j3NAKV-5" value="login" style="ellipse;whiteSpace=wrap;html=1;" vertex="1" parent="1">
          <mxGeometry x="240" y="30" width="80" height="30" as="geometry" />
        </mxCell>
        <mxCell id="NEpuYSpWq8pQS_j3NAKV-6" value="input data siswa/guru" style="ellipse;whiteSpace=wrap;html=1;" vertex="1" parent="1">
          <mxGeometry x="240" y="105" width="80" height="30" as="geometry" />
        </mxCell>
        <mxCell id="NEpuYSpWq8pQS_j3NAKV-7" value="lihat nilai" style="ellipse;whiteSpace=wrap;html=1;" vertex="1" parent="1">
          <mxGeometry x="240" y="240" width="80" height="30" as="geometry" />
        </mxCell>
        <mxCell id="NEpuYSpWq8pQS_j3NAKV-8" value="edit nilai" style="ellipse;whiteSpace=wrap;html=1;" vertex="1" parent="1">
          <mxGeometry x="240" y="280" width="80" height="30" as="geometry" />
        </mxCell>
        <mxCell id="NEpuYSpWq8pQS_j3NAKV-9" value="delete nilai" style="ellipse;whiteSpace=wrap;html=1;" vertex="1" parent="1">
          <mxGeometry x="240" y="320" width="80" height="30" as="geometry" />
        </mxCell>
        <mxCell id="NEpuYSpWq8pQS_j3NAKV-10" value="logout" style="ellipse;whiteSpace=wrap;html=1;" vertex="1" parent="1">
          <mxGeometry x="240" y="370" width="80" height="30" as="geometry" />
        </mxCell>
        <mxCell id="NEpuYSpWq8pQS_j3NAKV-11" value="edit data siswa/guru" style="ellipse;whiteSpace=wrap;html=1;" vertex="1" parent="1">
          <mxGeometry x="240" y="150" width="80" height="30" as="geometry" />
        </mxCell>
        <mxCell id="NEpuYSpWq8pQS_j3NAKV-12" value="delete&amp;nbsp;data siswa/guru" style="ellipse;whiteSpace=wrap;html=1;" vertex="1" parent="1">
          <mxGeometry x="240" y="190" width="80" height="30" as="geometry" />
        </mxCell>
        <mxCell id="NEpuYSpWq8pQS_j3NAKV-16" value="" style="rounded=0;whiteSpace=wrap;html=1;fillColor=none;" vertex="1" parent="1">
          <mxGeometry x="198" y="9" width="160" height="415" as="geometry" />
        </mxCell>
        <mxCell id="NEpuYSpWq8pQS_j3NAKV-18" value="" style="endArrow=classic;html=1;entryX=0;entryY=0.5;entryDx=0;entryDy=0;" edge="1" parent="1" target="NEpuYSpWq8pQS_j3NAKV-5">
          <mxGeometry width="50" height="50" relative="1" as="geometry">
            <mxPoint x="150" y="200" as="sourcePoint" />
            <mxPoint x="200" y="150" as="targetPoint" />
          </mxGeometry>
        </mxCell>
        <mxCell id="NEpuYSpWq8pQS_j3NAKV-19" value="" style="endArrow=classic;html=1;entryX=0;entryY=0.5;entryDx=0;entryDy=0;" edge="1" parent="1" target="NEpuYSpWq8pQS_j3NAKV-6">
          <mxGeometry width="50" height="50" relative="1" as="geometry">
            <mxPoint x="150" y="200" as="sourcePoint" />
            <mxPoint x="590" y="220" as="targetPoint" />
          </mxGeometry>
        </mxCell>
        <mxCell id="NEpuYSpWq8pQS_j3NAKV-20" value="" style="endArrow=classic;html=1;entryX=0;entryY=0.5;entryDx=0;entryDy=0;" edge="1" parent="1" target="NEpuYSpWq8pQS_j3NAKV-11">
          <mxGeometry width="50" height="50" relative="1" as="geometry">
            <mxPoint x="150" y="200" as="sourcePoint" />
            <mxPoint x="250" y="130" as="targetPoint" />
          </mxGeometry>
        </mxCell>
        <mxCell id="NEpuYSpWq8pQS_j3NAKV-21" value="" style="endArrow=classic;html=1;entryX=0;entryY=0.5;entryDx=0;entryDy=0;" edge="1" parent="1" target="NEpuYSpWq8pQS_j3NAKV-12">
          <mxGeometry width="50" height="50" relative="1" as="geometry">
            <mxPoint x="150" y="200" as="sourcePoint" />
            <mxPoint x="250" y="175" as="targetPoint" />
          </mxGeometry>
        </mxCell>
        <mxCell id="NEpuYSpWq8pQS_j3NAKV-22" value="" style="endArrow=classic;html=1;entryX=0;entryY=0.5;entryDx=0;entryDy=0;" edge="1" parent="1" target="NEpuYSpWq8pQS_j3NAKV-10">
          <mxGeometry width="50" height="50" relative="1" as="geometry">
            <mxPoint x="150" y="200" as="sourcePoint" />
            <mxPoint x="250" y="175" as="targetPoint" />
          </mxGeometry>
        </mxCell>
        <mxCell id="NEpuYSpWq8pQS_j3NAKV-23" value="" style="endArrow=classic;html=1;entryX=1;entryY=0.5;entryDx=0;entryDy=0;" edge="1" parent="1" target="NEpuYSpWq8pQS_j3NAKV-7">
          <mxGeometry width="50" height="50" relative="1" as="geometry">
            <mxPoint x="420" y="120" as="sourcePoint" />
            <mxPoint x="504" y="387.5" as="targetPoint" />
          </mxGeometry>
        </mxCell>
        <mxCell id="NEpuYSpWq8pQS_j3NAKV-24" value="" style="endArrow=classic;html=1;entryX=1;entryY=0.5;entryDx=0;entryDy=0;" edge="1" parent="1" target="NEpuYSpWq8pQS_j3NAKV-5">
          <mxGeometry width="50" height="50" relative="1" as="geometry">
            <mxPoint x="420" y="120" as="sourcePoint" />
            <mxPoint x="330" y="265" as="targetPoint" />
          </mxGeometry>
        </mxCell>
        <mxCell id="NEpuYSpWq8pQS_j3NAKV-25" value="" style="endArrow=classic;html=1;entryX=1;entryY=0.5;entryDx=0;entryDy=0;" edge="1" parent="1" target="NEpuYSpWq8pQS_j3NAKV-10">
          <mxGeometry width="50" height="50" relative="1" as="geometry">
            <mxPoint x="420" y="120" as="sourcePoint" />
            <mxPoint x="330" y="265" as="targetPoint" />
          </mxGeometry>
        </mxCell>
        <mxCell id="NEpuYSpWq8pQS_j3NAKV-26" value="" style="endArrow=classic;html=1;entryX=1;entryY=0.5;entryDx=0;entryDy=0;" edge="1" parent="1" target="NEpuYSpWq8pQS_j3NAKV-5">
          <mxGeometry width="50" height="50" relative="1" as="geometry">
            <mxPoint x="410" y="280" as="sourcePoint" />
            <mxPoint x="330" y="395" as="targetPoint" />
          </mxGeometry>
        </mxCell>
        <mxCell id="NEpuYSpWq8pQS_j3NAKV-27" value="" style="endArrow=classic;html=1;entryX=1;entryY=0.5;entryDx=0;entryDy=0;" edge="1" parent="1" target="NEpuYSpWq8pQS_j3NAKV-7">
          <mxGeometry width="50" height="50" relative="1" as="geometry">
            <mxPoint x="410" y="280" as="sourcePoint" />
            <mxPoint x="330" y="55" as="targetPoint" />
          </mxGeometry>
        </mxCell>
        <mxCell id="NEpuYSpWq8pQS_j3NAKV-28" value="" style="endArrow=classic;html=1;entryX=1;entryY=0.5;entryDx=0;entryDy=0;" edge="1" parent="1" target="NEpuYSpWq8pQS_j3NAKV-8">
          <mxGeometry width="50" height="50" relative="1" as="geometry">
            <mxPoint x="410" y="280" as="sourcePoint" />
            <mxPoint x="330" y="265" as="targetPoint" />
          </mxGeometry>
        </mxCell>
        <mxCell id="NEpuYSpWq8pQS_j3NAKV-29" value="" style="endArrow=classic;html=1;entryX=1;entryY=0.5;entryDx=0;entryDy=0;" edge="1" parent="1" target="NEpuYSpWq8pQS_j3NAKV-9">
          <mxGeometry width="50" height="50" relative="1" as="geometry">
            <mxPoint x="410" y="280" as="sourcePoint" />
            <mxPoint x="330" y="305" as="targetPoint" />
          </mxGeometry>
        </mxCell>
      </root>
    </mxGraphModel>
  </diagram>
</mxfile>
